<svg width="201" height="201" viewBox="0 0 201 201" fill="none" xmlns="http://www.w3.org/2000/svg">
<path d="M170.215 200.69H30.2148C22.2583 200.69 14.6277 197.529 9.00163 191.903C3.37554 186.277 0.214836 178.646 0.214836 170.69V10.6898C0.214836 8.03765 1.2684 5.49411 3.14377 3.61875C5.01913 1.74339 7.56267 0.689819 10.2148 0.689819H150.215C152.867 0.689819 155.411 1.74339 157.286 3.61875C159.161 5.49411 160.215 8.03765 160.215 10.6898V130.69H193.823H200.215V136.106V153.856V170.69C200.215 178.646 197.054 186.277 191.428 191.903C185.802 197.529 178.171 200.69 170.215 200.69ZM160.215 150.69V170.69C160.215 173.342 161.268 175.886 163.144 177.761C165.019 179.636 167.563 180.69 170.215 180.69C172.867 180.69 175.411 179.636 177.286 177.761C179.161 175.886 180.215 173.342 180.215 170.69V150.69H160.215ZM140.215 180.69V20.6898H20.2148V170.69C20.2148 173.342 21.2684 175.886 23.1438 177.761C25.0191 179.636 27.5627 180.69 30.2148 180.69H140.215Z" fill="white"/>
<path d="M59.3533 91.9084C57.1442 91.9058 55.2705 93.7199 55.7961 95.8657C56.455 98.5558 57.7826 101.038 59.6722 103.039C62.463 105.994 66.2511 107.657 70.2031 107.662C74.155 107.667 77.9472 106.013 80.7452 103.064C82.6396 101.068 83.9732 98.5891 84.6386 95.9006C85.1694 93.7562 83.3001 91.9375 81.091 91.9348V91.9348C78.8818 91.9321 77.1456 93.8426 76.022 95.7446C75.7479 96.2085 75.4227 96.6416 75.0503 97.0341C73.7665 98.3869 72.0266 99.1456 70.2134 99.1434C68.4002 99.1412 66.6622 98.3783 65.3817 97.0224C65.0102 96.629 64.6861 96.1951 64.4131 95.7306C63.294 93.8258 61.5625 91.9111 59.3533 91.9084V91.9084Z" fill="white"/>
<rect x="85.7538" y="98.1192" width="32.8051" height="9.11071" transform="rotate(44.7797 85.7538 98.1192)" fill="white"/>
<path d="M111.448 130.117H99.5782V87.6166C99.5782 86.7866 99.4122 86.0118 99.0801 85.2924C98.7758 84.573 98.3469 83.9505 97.7935 83.4247C97.2678 82.8714 96.6452 82.4425 95.9258 82.1381C95.2064 81.8338 94.4317 81.6816 93.6016 81.6816C92.7715 81.6816 91.9968 81.8338 91.2774 82.1381C90.558 82.4425 89.9216 82.8714 89.3682 83.4247C88.8425 83.9505 88.4275 84.573 88.1231 85.2924C87.8187 86.0118 87.6666 86.7866 87.6666 87.6166V130.117H75.7549V87.6166C75.7549 86.7866 75.6028 86.0118 75.2984 85.2924C74.994 84.573 74.5652 83.9505 74.0118 83.4247C73.4861 82.8714 72.8635 82.4425 72.1441 82.1381C71.4247 81.8338 70.65 81.6816 69.8199 81.6816C68.9898 81.6816 68.2151 81.8338 67.4957 82.1381C66.7763 82.4425 66.1399 82.8714 65.5865 83.4247C65.0608 83.9505 64.6457 84.573 64.3414 85.2924C64.037 86.0118 63.8848 86.7866 63.8848 87.6166V130.117H51.9732V87.6166C51.9732 85.1541 52.4297 82.8437 53.3428 80.6855C54.2836 78.4996 55.5564 76.6043 57.1612 74.9995C58.7937 73.367 60.689 72.0942 62.8472 71.1811C65.0331 70.2403 67.3573 69.77 69.8199 69.77C72.0334 69.77 74.164 70.1712 76.2115 70.9736C78.259 71.7483 80.099 72.8828 81.7315 74.3769C83.364 72.8828 85.1902 71.7483 87.21 70.9736C89.2575 70.1712 91.3881 69.77 93.6016 69.77C96.0642 69.77 98.3746 70.2403 100.533 71.1811C102.719 72.0942 104.614 73.367 106.219 74.9995C107.851 76.6043 109.124 78.4996 110.037 80.6855C110.978 82.8437 111.448 85.1541 111.448 87.6166V130.117Z" fill="white"/>
</svg>
